# xmcd
#
# Track frame offsets: 
#        150
#        20272
#        31487
#        53957
#        68951
#        83427
#        98750
#        114524
#        127398
#        138777
#        153792
#        173884
#
# Disc length: 2528 seconds
#
# Revision: 1
# Processed by: cddbd v1.5.2PL0 Copyright (c) Steve Scherf et al.
# Submitted via: ExactAudioCopy v0.95b3
#
DISCID=9609de0c
DTITLE=Matthew Sweet - Modern Art
DYEAR=2011
DGENRE=Rock
TTITLE0=Oh, Oldendaze!
TTITLE1=Ivory Tower
TTITLE2=She Walks The Night
TTITLE3=When Love Lets Go I'm Falling
TTITLE4=Ladyfingers
TTITLE5=A Little Death
TTITLE6=Late Nights With The Power Pop
TTITLE7=Baltimore
TTITLE8=My Ass Is Grass
TTITLE9=December Dark
TTITLE10=Modern Art
TTITLE11=Sleeping
EXTD=
EXTT0=
EXTT1=
EXTT2=
EXTT3=
EXTT4=
EXTT5=
EXTT6=
EXTT7=
EXTT8=
EXTT9=
EXTT10=
EXTT11=
PLAYORDER=
